<?xml version="1.0" encoding="UTF-8"?>
<svg width="52" height="52" version="1.1" viewBox="0 0 13.758 13.758" xmlns="http://www.w3.org/2000/svg">
<path d="m6.8711 0.30273c-3.6215 1e-8 -6.5684 2.9469-6.5684 6.5684 1.1e-7 3.6215 2.9469 6.5684 6.5684 6.5684s6.5684-2.9469 6.5684-6.5684c0-1.0982-0.27526-2.1783-0.80078-3.1426l-0.87891 0.47852c0.44553 0.81747 0.67969 1.7331 0.67969 2.6641 0 3.081-2.4873 5.5684-5.5684 5.5684s-5.5684-2.4873-5.5684-5.5684c0-3.081 2.4873-5.5684 5.5684-5.5684 0.52633 0 1.0493 0.073677 1.5547 0.2207l0.2793-0.95898c-0.59614-0.17343-1.2131-0.26172-1.834-0.26172z" color="#000000" fill="#3c3c3c" style="-inkscape-stroke:none"/>
</svg>
